<svg width="935" height="413" viewBox="0 0 935 413" fill="none" xmlns="http://www.w3.org/2000/svg">
<path d="M363.939 232.698C363.947 232.329 363.881 231.962 363.745 231.618C363.608 231.275 363.404 230.963 363.144 230.7C362.885 230.438 362.575 230.23 362.233 230.09C361.891 229.95 361.525 229.879 361.156 229.884C360.409 229.884 359.693 230.18 359.166 230.708C358.638 231.236 358.341 231.952 358.341 232.698C358.329 233.279 358.506 233.848 358.845 234.319C359.184 234.79 359.668 235.138 360.223 235.31V263.19C360.819 263.713 361.442 264.206 362.089 264.667V235.31C362.626 235.114 363.091 234.759 363.421 234.293C363.752 233.826 363.932 233.27 363.939 232.698ZM361.156 234.253C360.743 234.253 360.348 234.089 360.056 233.798C359.765 233.506 359.601 233.11 359.601 232.698C359.601 232.286 359.765 231.89 360.056 231.599C360.348 231.307 360.743 231.143 361.156 231.143C361.568 231.143 361.964 231.307 362.255 231.599C362.547 231.89 362.711 232.286 362.711 232.698C362.711 233.11 362.547 233.506 362.255 233.798C361.964 234.089 361.568 234.253 361.156 234.253ZM364.157 221.534C364.426 221.01 364.559 220.428 364.545 219.839C364.556 219.319 364.463 218.801 364.271 218.317C364.08 217.833 363.795 217.391 363.432 217.018C363.069 216.645 362.635 216.347 362.157 216.143C361.678 215.939 361.163 215.831 360.643 215.827C359.581 215.831 358.565 216.256 357.816 217.008C357.067 217.76 356.646 218.778 356.646 219.839C356.648 220.359 356.754 220.873 356.957 221.352C357.159 221.831 357.455 222.264 357.827 222.627C358.199 222.991 358.639 223.276 359.123 223.468C359.606 223.659 360.123 223.752 360.643 223.742C361.389 223.753 362.122 223.536 362.742 223.12L368.059 228.438L367.982 268.321C368.697 268.647 369.428 268.974 370.143 269.223V227.582L364.157 221.534ZM360.643 222.047C360.189 222.059 359.741 221.935 359.358 221.69C358.976 221.446 358.675 221.092 358.496 220.675C358.316 220.257 358.266 219.796 358.352 219.35C358.437 218.904 358.655 218.494 358.976 218.172C359.297 217.851 359.707 217.634 360.153 217.548C360.599 217.463 361.061 217.513 361.478 217.692C361.895 217.872 362.249 218.172 362.494 218.555C362.739 218.938 362.863 219.385 362.851 219.839C362.851 220.429 362.62 220.995 362.207 221.417C361.794 221.838 361.232 222.081 360.643 222.094V222.047ZM373.253 226.23V215.112C374.027 214.824 374.695 214.306 375.168 213.628C375.64 212.95 375.894 212.145 375.896 211.318C375.833 210.308 375.387 209.359 374.649 208.666C373.911 207.972 372.936 207.586 371.923 207.586C370.911 207.586 369.936 207.972 369.198 208.666C368.46 209.359 368.014 210.308 367.951 211.318C367.913 212.234 368.206 213.133 368.777 213.85C369.349 214.567 370.159 215.053 371.06 215.221V227.131L376.3 232.263L376.223 271.135C376.953 271.306 377.669 271.462 378.399 271.571V231.407L373.253 226.23ZM369.677 211.318C369.676 211.023 369.736 210.731 369.85 210.459C369.965 210.187 370.133 209.94 370.345 209.734C370.557 209.529 370.808 209.367 371.083 209.26C371.358 209.153 371.652 209.102 371.947 209.11C372.527 209.126 373.08 209.364 373.491 209.774C373.901 210.185 374.139 210.738 374.155 211.318C374.151 211.912 373.92 212.481 373.51 212.909C373.099 213.337 372.539 213.592 371.947 213.619C371.649 213.621 371.354 213.565 371.079 213.452C370.804 213.34 370.553 213.174 370.342 212.965C370.131 212.755 369.964 212.506 369.85 212.231C369.735 211.957 369.677 211.662 369.677 211.365V211.318ZM383.422 215.765C382.359 215.769 381.341 216.193 380.59 216.945C379.838 217.696 379.414 218.714 379.41 219.777C379.397 220.642 379.675 221.487 380.199 222.175C380.724 222.863 381.464 223.355 382.302 223.571V272.037C382.94 272.037 383.639 272.037 384.324 272.037L384.495 223.509C385.34 223.301 386.089 222.812 386.62 222.123C387.151 221.434 387.433 220.585 387.418 219.715C387.402 218.664 386.974 217.662 386.227 216.923C385.479 216.185 384.472 215.769 383.422 215.765ZM383.422 222.094C382.816 222.067 382.242 221.814 381.813 221.385C381.384 220.957 381.132 220.383 381.105 219.777C381.137 219.183 381.394 218.623 381.825 218.213C382.256 217.802 382.827 217.572 383.422 217.569C384.002 217.581 384.555 217.818 384.964 218.23C385.373 218.642 385.606 219.196 385.614 219.777C385.611 220.369 385.383 220.938 384.976 221.369C384.569 221.799 384.013 222.058 383.422 222.094ZM394.835 205.736C394.315 205.738 393.801 205.843 393.322 206.046C392.843 206.249 392.41 206.545 392.046 206.917C391.683 207.289 391.398 207.729 391.206 208.212C391.015 208.696 390.922 209.212 390.932 209.732C390.914 210.549 391.155 211.351 391.622 212.021C392.089 212.692 392.756 213.197 393.529 213.464V224.784L388.32 229.868V271.85C389.061 271.799 389.799 271.7 390.528 271.555V230.817L395.628 225.623V213.588C396.525 213.386 397.329 212.889 397.91 212.175C398.491 211.462 398.815 210.574 398.831 209.654C398.807 208.607 398.373 207.61 397.623 206.878C396.874 206.146 395.867 205.736 394.819 205.736H394.835ZM394.835 212.049C394.239 212.021 393.678 211.765 393.266 211.333C392.855 210.902 392.626 210.328 392.627 209.732C392.639 209.152 392.876 208.599 393.288 208.19C393.7 207.781 394.254 207.548 394.835 207.54C395.416 207.54 395.974 207.771 396.385 208.182C396.796 208.593 397.027 209.151 397.027 209.732C397.036 210.331 396.809 210.908 396.396 211.341C395.984 211.775 395.417 212.029 394.819 212.049H394.835ZM405.439 229.884C405.071 229.879 404.705 229.95 404.364 230.09C404.023 230.231 403.714 230.438 403.456 230.701C403.197 230.964 402.995 231.276 402.86 231.62C402.725 231.963 402.661 232.33 402.671 232.698C402.644 233.271 402.805 233.837 403.131 234.31C403.457 234.782 403.929 235.133 404.475 235.31V266.579C405.119 266.215 405.742 265.815 406.341 265.382V235.31C406.9 235.14 407.39 234.794 407.737 234.323C408.085 233.853 408.271 233.283 408.269 232.698C408.267 232.326 408.192 231.959 408.048 231.616C407.904 231.274 407.693 230.963 407.429 230.701C407.165 230.44 406.852 230.233 406.508 230.093C406.164 229.953 405.795 229.882 405.424 229.884H405.439ZM405.439 234.3C405.027 234.3 404.631 234.136 404.34 233.844C404.048 233.553 403.884 233.157 403.884 232.745C403.884 232.332 404.048 231.937 404.34 231.645C404.631 231.354 405.027 231.19 405.439 231.19C405.852 231.19 406.247 231.354 406.539 231.645C406.83 231.937 406.994 232.332 406.994 232.745C406.994 233.157 406.83 233.553 406.539 233.844C406.247 234.136 405.852 234.3 405.439 234.3ZM405.952 217.46C404.89 217.464 403.872 217.888 403.12 218.64C402.369 219.391 401.945 220.409 401.941 221.472C401.956 222.107 402.133 222.727 402.454 223.275L396.53 229.2V270.233C397.302 270.011 398.06 269.741 398.8 269.425L398.722 230.101L403.962 224.861C404.567 225.223 405.249 225.437 405.952 225.483C407.016 225.483 408.037 225.061 408.789 224.308C409.541 223.556 409.964 222.536 409.964 221.472C409.964 220.408 409.541 219.387 408.789 218.635C408.037 217.883 407.016 217.46 405.952 217.46ZM405.952 223.68C405.661 223.686 405.371 223.633 405.1 223.525C404.829 223.416 404.583 223.253 404.377 223.047C404.171 222.841 404.008 222.595 403.899 222.324C403.791 222.053 403.738 221.763 403.744 221.472C403.738 221.176 403.79 220.881 403.898 220.605C404.006 220.329 404.167 220.077 404.372 219.864C404.577 219.65 404.822 219.479 405.093 219.36C405.364 219.241 405.656 219.176 405.952 219.17C406.546 219.195 407.108 219.448 407.52 219.877C407.931 220.305 408.161 220.877 408.16 221.472C408.156 222.059 407.92 222.62 407.504 223.034C407.087 223.447 406.524 223.68 405.937 223.68H405.952Z" fill="url(#paint0_linear_14_17)"/>
<path d="M450.578 209.514C446.111 196.018 437.626 184.211 426.259 175.673C414.893 167.136 401.188 162.277 386.982 161.748C386.951 161.725 386.913 161.713 386.873 161.713C386.834 161.713 386.796 161.725 386.765 161.748C386.091 161.708 385.417 161.708 384.743 161.748C370.074 161.831 355.805 166.532 343.959 175.185C332.114 183.837 323.294 196.001 318.753 209.95C316.281 217.316 315.026 225.036 315.037 232.806V346.998C319.242 347.004 323.406 346.179 327.29 344.571C331.175 342.963 334.703 340.602 337.673 337.626C340.642 334.649 342.994 331.115 344.593 327.226C346.192 323.338 347.007 319.172 346.99 314.967V283.869C355.853 296.309 370.407 302.979 390.45 302.979C392.285 302.979 394.088 302.979 395.861 302.792C408.232 300.694 419.812 295.307 429.387 287.196C438.961 279.085 446.179 268.548 450.282 256.69C455.642 241.436 455.735 224.827 450.547 209.514H450.578ZM418.5 251.885C415.551 257.273 411.382 261.895 406.325 265.382C405.726 265.815 405.103 266.215 404.459 266.579C402.655 267.693 400.756 268.646 398.784 269.424C398.045 269.74 397.287 270.01 396.514 270.233C394.561 270.885 392.552 271.354 390.512 271.632C389.783 271.778 389.046 271.876 388.304 271.928C387.122 272.037 385.925 272.099 384.743 272.099H384.308C383.624 272.099 382.924 272.099 382.287 272.099C380.979 272.009 379.676 271.854 378.384 271.632C377.653 271.523 376.938 271.368 376.207 271.197C374.131 270.726 372.102 270.07 370.143 269.238C369.428 268.989 368.697 268.662 367.981 268.336C365.92 267.299 363.949 266.093 362.088 264.729C361.442 264.268 360.819 263.775 360.223 263.251C353.487 257.64 348.828 249.931 346.99 241.358C345.758 235.724 345.758 229.889 346.99 224.255C348.573 216.461 352.533 209.351 358.325 203.902C364.117 198.452 371.455 194.933 379.33 193.828C387.205 192.723 395.229 194.087 402.297 197.731C409.365 201.376 415.129 207.122 418.796 214.179C421.858 220.026 423.433 226.538 423.381 233.139C423.33 239.74 421.653 246.226 418.5 252.025V251.885Z" fill="url(#paint1_linear_14_17)"/>
<path d="M510.924 202.3C510.924 192.504 520.968 187.497 541.011 187.497C561.769 187.497 572.28 194.432 572.28 207.788H604.28C604.28 176.302 583.009 160.302 541.011 160.302C499.728 160.302 478.971 175.104 478.971 204.679C478.971 264.122 575.607 229.557 575.607 259.567C575.607 269.362 564.63 274.385 543.172 274.385C519.849 274.385 508.078 267.45 508.078 254.078H476.141C476.141 285.611 498.609 301.611 543.235 301.611C585.963 301.611 607.669 286.808 607.669 257.188C607.669 197.744 510.924 232.387 510.924 202.3Z" fill="url(#paint2_linear_14_17)"/>
<path d="M931.182 157.922L910.098 210.167C899.233 237.613 885.045 263.623 867.851 287.616C743.273 459.184 521.809 444.024 353.258 300.413C359.975 304.752 672.012 492.941 832.369 279.142L791.817 158.389C797.842 157.103 803.457 154.35 808.163 150.374C812.87 146.397 816.521 141.321 818.794 135.594L856.376 253.549L897.006 157.627C902.121 160.847 908.034 162.574 914.078 162.612C920.123 162.651 926.058 160.999 931.213 157.845L931.182 157.922Z" fill="url(#paint3_linear_14_17)"/>
<path d="M697.746 229.106L774.34 301.689H730.166L668.327 243.193V301.689H636.39V129.826H668.374V215.749L731.876 156.663L736.059 152.76C736.059 152.76 746.243 142.794 750.364 138.86C752.671 143.838 756.053 148.244 760.266 151.761C764.479 155.277 769.418 157.817 774.729 159.198L755.884 175.555L697.746 229.106Z" fill="url(#paint4_linear_14_17)"/>
<path d="M865.566 0.0381412C857.046 0.209023 848.859 3.37893 842.446 8.9902C836.033 14.6015 831.804 22.2946 830.503 30.7163C829.927 33.0797 830.269 47.4936 830.269 47.5092C830.269 50.0903 832.244 66.3235 817.006 82.1834C801.768 98.0434 784.229 95.5867 784.229 95.5867C779.22 95.5188 774.306 96.9591 770.126 99.7203C765.946 102.482 762.694 106.436 760.791 111.07C758.888 115.704 758.423 120.804 759.456 125.706C760.489 130.607 762.972 135.085 766.583 138.557C770.195 142.029 774.767 144.335 779.705 145.174C784.644 146.014 789.721 145.349 794.277 143.265C798.833 141.182 802.656 137.776 805.251 133.491C807.846 129.206 809.092 124.239 808.827 119.237C808.827 119.237 805.718 101.822 820.925 85.9618C836.131 70.1019 852.162 71.6257 854.744 71.5946C854.744 71.5946 865.037 72.5275 866.949 72.4653C871.707 72.3714 876.4 71.3413 880.759 69.4338C885.119 67.5264 889.06 64.7789 892.358 61.3483C895.656 57.9177 898.245 53.8711 899.979 49.4397C901.713 45.0082 902.557 40.2786 902.463 35.5209C902.369 30.7633 901.339 26.0707 899.432 21.7111C897.524 17.3515 894.777 13.4103 891.346 10.1126C887.916 6.8148 883.869 4.22502 879.438 2.49111C875.006 0.757205 870.277 -0.0868681 865.519 0.00706032L865.566 0.0381412Z" fill="#F37321"/>
<path d="M933.576 121.025C931.951 116.437 928.76 112.57 924.566 110.102C920.371 107.633 915.441 106.722 910.642 107.528C909.258 107.653 901.499 110.42 901.499 110.42C898.109 111.811 894.458 112.447 890.798 112.283C887.138 112.119 883.557 111.16 880.306 109.472C877.098 108.065 874.248 105.953 871.968 103.293C869.688 100.634 868.036 97.4947 867.136 94.1094C866.272 91.3829 864.607 88.9793 862.36 87.2108C860.112 85.4424 857.384 84.3909 854.53 84.1929C851.677 83.995 848.83 84.6598 846.36 86.1008C843.889 87.5419 841.909 89.6927 840.677 92.2738C839.444 94.8549 839.017 97.7469 839.449 100.574C839.882 103.401 841.155 106.033 843.103 108.128C845.051 110.222 847.583 111.682 850.372 112.318C853.16 112.955 856.076 112.737 858.739 111.695C861.936 110.268 865.412 109.579 868.912 109.678C872.411 109.778 875.843 110.664 878.953 112.271C890.288 117.682 892.341 126.638 892.823 128.037C892.823 128.037 894.175 133.775 894.548 134.817C896.382 139.992 900.195 144.227 905.151 146.591C910.107 148.954 915.799 149.252 920.974 147.419C926.149 145.586 930.385 141.772 932.748 136.816C935.112 131.861 935.41 126.169 933.576 120.994V121.025Z" fill="#F37321"/>
<path d="M115.157 254.233C107.377 245.225 100.312 235.623 94.0264 225.514V302.653H126.026V265.817C122.201 262.101 118.547 258.167 115.157 254.233Z" fill="url(#paint5_linear_14_17)"/>
<path d="M227.373 301.611C184.784 302.979 150.017 279.143 126.04 253.145C106.386 231.874 94.0403 208.441 90.5729 202.222L90.1686 201.429C90.0228 201.087 89.8459 200.759 89.6399 200.449C84.6642 191.897 75.6458 187.124 63.0667 187.124C43.2729 187.124 32.0465 199.05 32.0465 219.124L32.1398 302.762H4.61317e-05V218.362C-0.00402045 213.851 0.260773 209.344 0.793036 204.865C2.57271 190.843 9.36835 177.939 19.9239 168.538C30.4795 159.137 44.0813 153.875 58.2154 153.725C94.8333 153.336 111.222 175.571 111.222 175.571C113.478 178.007 115.44 180.7 117.068 183.594C118.425 185.669 119.646 187.829 120.722 190.063C122.961 194.385 125.169 198.723 127.408 203.062C169.391 273.265 222.879 274.198 222.879 274.198L227.373 301.611Z" fill="url(#paint6_linear_14_17)"/>
<path d="M293.238 221.409C293.238 182.537 269.106 160.302 227.357 160.302C183.913 160.302 159.112 182.475 159.112 221.409V240.503C159.112 241.374 159.112 242.245 159.112 243.069C160.201 280.387 184.83 301.611 227.295 301.611C267.38 301.611 290.532 284.414 290.532 254.078H258.672C258.672 266.983 247.182 274.385 227.388 274.385C225.833 274.385 224.278 274.385 222.848 274.198H222.226C202.292 272.457 191.128 260.328 191.128 240.535H293.238V221.409ZM191.796 213.277C194.642 196.811 207.345 187.497 227.357 187.497C246.016 187.497 257.662 196.826 260.507 213.277H191.796Z" fill="url(#paint7_linear_14_17)"/>
<defs>
<linearGradient id="paint0_linear_14_17" x1="151.913" y1="399.321" x2="706.919" y2="17.1581" gradientUnits="userSpaceOnUse">
<stop stop-color="#1F2A5A"/>
<stop offset="1" stop-color="#1F2A5A"/>
</linearGradient>
<linearGradient id="paint1_linear_14_17" x1="148.974" y1="395.029" x2="703.964" y2="12.866" gradientUnits="userSpaceOnUse">
<stop stop-color="#1F2A5A"/>
<stop offset="1" stop-color="#1F2A5A"/>
</linearGradient>
<linearGradient id="paint2_linear_14_17" x1="199.042" y1="467.798" x2="754.048" y2="85.6357" gradientUnits="userSpaceOnUse">
<stop stop-color="#1F2A5A"/>
<stop offset="1" stop-color="#1F2A5A"/>
</linearGradient>
<linearGradient id="paint3_linear_14_17" x1="254.289" y1="550.643" x2="809.294" y2="168.48" gradientUnits="userSpaceOnUse">
<stop stop-color="#1F2A5A"/>
<stop offset="1" stop-color="#1F2A5A"/>
</linearGradient>
<linearGradient id="paint4_linear_14_17" x1="242.347" y1="534.581" x2="797.353" y2="152.419" gradientUnits="userSpaceOnUse">
<stop stop-color="#1F2A5A"/>
<stop offset="1" stop-color="#1F2A5A"/>
</linearGradient>
<linearGradient id="paint5_linear_14_17" x1="72.4755" y1="289.949" x2="661.953" y2="-115.956" gradientUnits="userSpaceOnUse">
<stop stop-color="#1F2A5A"/>
<stop offset="1" stop-color="#1F2A5A"/>
</linearGradient>
<linearGradient id="paint6_linear_14_17" x1="64.4661" y1="275.551" x2="627.277" y2="-111.992" gradientUnits="userSpaceOnUse">
<stop stop-color="#1F2A5A"/>
<stop offset="0.47" stop-color="#232764"/>
<stop offset="1" stop-color="#25266A"/>
</linearGradient>
<linearGradient id="paint7_linear_14_17" x1="97.6627" y1="320.534" x2="652.684" y2="-61.6289" gradientUnits="userSpaceOnUse">
<stop stop-color="#1F2A5A"/>
<stop offset="1" stop-color="#1F2A5A"/>
</linearGradient>
</defs>
</svg>
